<svg width="16" height="16" viewBox="0 0 16 16" fill="none" xmlns="http://www.w3.org/2000/svg">
<path d="M7.97654 8.98462C10.346 8.98462 12.2463 6.96615 12.2463 4.50462C12.2463 2.04308 10.346 0 7.97654 0C5.60704 0 3.70675 2.01846 3.70675 4.48C3.70675 6.94154 5.60704 8.98462 7.97654 8.98462ZM7.97654 1.18154C9.71261 1.18154 11.1202 2.65846 11.1202 4.48C11.1202 6.30154 9.71261 7.77846 7.97654 7.77846C6.24047 7.77846 4.83285 6.32615 4.83285 4.50462C4.83285 2.68308 6.24047 1.18154 7.97654 1.18154ZM0.56305 16H15.437C15.7419 16 16 15.7292 16 15.4092C16 12.3077 13.5836 9.77231 10.6276 9.77231H5.37243C2.41642 9.77231 0 12.3077 0 15.4092C0 15.7292 0.258064 16 0.56305 16ZM5.37243 10.9538H10.6276C12.7859 10.9538 14.5455 12.6277 14.827 14.8185H1.17302C1.45455 12.6277 3.21408 10.9538 5.37243 10.9538Z" fill="#B6BFD0"/>
</svg>
