<svg width="16" height="16" viewBox="0 0 16 16" fill="none" xmlns="http://www.w3.org/2000/svg">
<path d="M4 8C4 10.24 5.76 12 8 12C10.24 12 12 10.24 12 8C12 5.76 10.24 4 8 4C5.76 4 4 5.76 4 8ZM8 5.6C9.36 5.6 10.4 6.64 10.4 8C10.4 9.36 9.36 10.4 8 10.4C6.64 10.4 5.6 9.36 5.6 8C5.6 6.64 6.64 5.6 8 5.6ZM8.8 2.4V0.8C8.8 0.32 8.48 0 8 0C7.52 0 7.2 0.32 7.2 0.8V2.4C7.2 2.88 7.52 3.2 8 3.2C8.48 3.2 8.8 2.88 8.8 2.4ZM13.68 2.32C13.36 2 12.88 2 12.56 2.32L11.44 3.44C11.12 3.76 11.12 4.24 11.44 4.56C11.6 4.72 11.84 4.8 12 4.8C12.16 4.8 12.4 4.72 12.56 4.56L13.68 3.44C14 3.2 14 2.64 13.68 2.32ZM15.2 7.2H13.6C13.12 7.2 12.8 7.52 12.8 8C12.8 8.48 13.12 8.8 13.6 8.8H15.2C15.68 8.8 16 8.48 16 8C16 7.52 15.68 7.2 15.2 7.2ZM12.56 11.36C12.24 11.04 11.76 11.04 11.44 11.36C11.12 11.68 11.12 12.16 11.44 12.48L12.56 13.6C12.72 13.76 12.96 13.84 13.12 13.84C13.28 13.84 13.52 13.76 13.68 13.6C14 13.28 14 12.8 13.68 12.48L12.56 11.36ZM7.2 13.6V15.2C7.2 15.68 7.52 16 8 16C8.48 16 8.8 15.68 8.8 15.2V13.6C8.8 13.12 8.48 12.8 8 12.8C7.52 12.8 7.2 13.12 7.2 13.6ZM2.32 13.68C2.48 13.84 2.72 13.92 2.88 13.92C3.04 13.92 3.28 13.84 3.44 13.68L4.56 12.56C4.88 12.24 4.88 11.76 4.56 11.44C4.24 11.12 3.76 11.12 3.44 11.44L2.32 12.56C2 12.8 2 13.36 2.32 13.68ZM0 8C0 8.48 0.32 8.8 0.8 8.8H2.4C2.88 8.8 3.2 8.48 3.2 8C3.2 7.52 2.88 7.2 2.4 7.2H0.8C0.32 7.2 0 7.52 0 8ZM3.44 2.32C3.12 2 2.64 2 2.32 2.32C2 2.64 2 3.12 2.32 3.44L3.44 4.56C3.6 4.8 3.84 4.88 4.08 4.88C4.32 4.88 4.48 4.8 4.64 4.64C4.96 4.32 4.96 3.84 4.64 3.52L3.44 2.32Z" fill="#B6BFD0"/>
</svg>
