<svg width="19" height="16" viewBox="0 0 19 16" fill="none" xmlns="http://www.w3.org/2000/svg">
<path d="M0.59375 1.5625H18.4062C18.5637 1.5625 18.7147 1.48019 18.8261 1.33368C18.9374 1.18716 19 0.98845 19 0.78125C19 0.57405 18.9374 0.375336 18.8261 0.228823C18.7147 0.0823102 18.5637 0 18.4062 0H0.59375C0.436278 0 0.285255 0.0823102 0.173905 0.228823C0.0625556 0.375336 0 0.57405 0 0.78125C0 0.98845 0.0625556 1.18716 0.173905 1.33368C0.285255 1.48019 0.436278 1.5625 0.59375 1.5625Z" fill="#B6BFD0"/>
<path d="M18.4062 7.03125H0.59375C0.436278 7.03125 0.285255 7.11356 0.173905 7.26007C0.0625556 7.40659 0 7.6053 0 7.8125C0 8.0197 0.0625556 8.21842 0.173905 8.36493C0.285255 8.51144 0.436278 8.59375 0.59375 8.59375H18.4062C18.5637 8.59375 18.7147 8.51144 18.8261 8.36493C18.9374 8.21842 19 8.0197 19 7.8125C19 7.6053 18.9374 7.40659 18.8261 7.26007C18.7147 7.11356 18.5637 7.03125 18.4062 7.03125Z" fill="#B6BFD0"/>
<path d="M18.4062 14.0625H0.59375C0.436278 14.0625 0.285255 14.1448 0.173905 14.2913C0.0625556 14.4378 0 14.6365 0 14.8438C0 15.051 0.0625556 15.2497 0.173905 15.3962C0.285255 15.5427 0.436278 15.625 0.59375 15.625H18.4062C18.5637 15.625 18.7147 15.5427 18.8261 15.3962C18.9374 15.2497 19 15.051 19 14.8438C19 14.6365 18.9374 14.4378 18.8261 14.2913C18.7147 14.1448 18.5637 14.0625 18.4062 14.0625Z" fill="#B6BFD0"/>
</svg>
