<svg width="14" height="15" viewBox="0 0 14 15" fill="none" xmlns="http://www.w3.org/2000/svg">
<path d="M1.91599 9.99963C2.83915 10.9241 4.0685 11.4791 5.37246 11.56C6.67641 11.6409 7.96495 11.2422 8.99532 10.439L12.5407 13.9843C12.6664 14.1057 12.8348 14.1729 13.0096 14.1714C13.1844 14.1699 13.3516 14.0998 13.4752 13.9762C13.5988 13.8526 13.6689 13.6854 13.6704 13.5106C13.672 13.3358 13.6048 13.1674 13.4833 13.0416L9.93799 9.4963C10.7769 8.41974 11.1735 7.06373 11.0469 5.70481C10.9204 4.34589 10.2802 3.08643 9.25698 2.18327C8.23375 1.28012 6.90455 0.801305 5.54043 0.844482C4.17632 0.88766 2.88005 1.44957 1.91599 2.41563C1.41785 2.91351 1.0227 3.50466 0.753095 4.15531C0.483492 4.80595 0.344727 5.50334 0.344727 6.20763C0.344727 6.91192 0.483492 7.60931 0.753095 8.25995C1.0227 8.9106 1.41785 9.50175 1.91599 9.99963ZM2.85866 3.35963C3.5177 2.7006 4.38487 2.29046 5.31241 2.1991C6.23994 2.10773 7.17047 2.3408 7.94543 2.85858C8.7204 3.37636 9.29186 4.14683 9.56246 5.03871C9.83305 5.93059 9.78604 6.8887 9.42943 7.7498C9.07282 8.61091 8.42868 9.32173 7.60674 9.76116C6.78481 10.2006 5.83594 10.3414 4.9218 10.1597C4.00767 9.97797 3.18482 9.48491 2.59345 8.76452C2.00209 8.04413 1.6788 7.14099 1.67866 6.20896C1.67683 5.67935 1.78019 5.15464 1.98275 4.66528C2.18532 4.17593 2.48304 3.73168 2.85866 3.3583V3.35963Z" fill="#B6BFD0"/>
</svg>
