<svg width="13" height="16" viewBox="0 0 13 16" fill="none" xmlns="http://www.w3.org/2000/svg">
<path d="M7.07688 7.432C6.9996 7.35917 6.90849 7.30208 6.80875 7.264C6.61094 7.18399 6.38906 7.18399 6.19125 7.264C6.09151 7.30208 6.0004 7.35917 5.92312 7.432L4.29812 9.032C4.14513 9.18264 4.05918 9.38696 4.05918 9.6C4.05918 9.81304 4.14513 10.0174 4.29812 10.168C4.45112 10.3186 4.65863 10.4033 4.875 10.4033C5.09137 10.4033 5.29888 10.3186 5.45188 10.168L5.6875 9.928V12C5.6875 12.2122 5.7731 12.4157 5.92548 12.5657C6.07785 12.7157 6.28451 12.8 6.5 12.8C6.71549 12.8 6.92215 12.7157 7.07452 12.5657C7.2269 12.4157 7.3125 12.2122 7.3125 12V9.928L7.54812 10.168C7.62366 10.243 7.71352 10.3025 7.81253 10.3431C7.91154 10.3837 8.01774 10.4046 8.125 10.4046C8.23226 10.4046 8.33846 10.3837 8.43747 10.3431C8.53648 10.3025 8.62634 10.243 8.70187 10.168C8.77803 10.0936 8.83847 10.0051 8.87972 9.90766C8.92097 9.81017 8.94221 9.70561 8.94221 9.6C8.94221 9.49439 8.92097 9.38983 8.87972 9.29234C8.83847 9.19485 8.77803 9.10637 8.70187 9.032L7.07688 7.432ZM13 5.552C12.9915 5.47851 12.9752 5.4061 12.9513 5.336V5.264C12.9122 5.18174 12.8601 5.10613 12.7969 5.04L7.92188 0.24C7.85471 0.177773 7.77792 0.126465 7.69438 0.0879999H7.61312C7.53412 0.0464024 7.44921 0.0167376 7.36125 0H2.4375C1.79103 0 1.17105 0.252856 0.713927 0.702944C0.256807 1.15303 0 1.76348 0 2.4V13.6C0 14.2365 0.256807 14.847 0.713927 15.2971C1.17105 15.7471 1.79103 16 2.4375 16H10.5625C11.209 16 11.829 15.7471 12.2861 15.2971C12.7432 14.847 13 14.2365 13 13.6V5.6C13 5.6 13 5.6 13 5.552ZM8.125 2.728L10.2294 4.8H8.9375C8.72201 4.8 8.51535 4.71571 8.36298 4.56569C8.2106 4.41566 8.125 4.21217 8.125 4V2.728ZM11.375 13.6C11.375 13.8122 11.2894 14.0157 11.137 14.1657C10.9847 14.3157 10.778 14.4 10.5625 14.4H2.4375C2.22201 14.4 2.01535 14.3157 1.86298 14.1657C1.7106 14.0157 1.625 13.8122 1.625 13.6V2.4C1.625 2.18783 1.7106 1.98434 1.86298 1.83431C2.01535 1.68429 2.22201 1.6 2.4375 1.6H6.5V4C6.5 4.63652 6.75681 5.24697 7.21393 5.69706C7.67105 6.14714 8.29103 6.4 8.9375 6.4H11.375V13.6Z" fill="#B6BFD0"/>
</svg>
