<svg width="50" height="30" viewBox="0 0 50 30" fill="none" xmlns="http://www.w3.org/2000/svg">
<path d="M33.2043 10.2926L16.4089 0.596517V0.5L33.2043 10.196V10.2926Z" fill="#4074F6"/>
<path d="M33.2043 12.2133L16.4089 2.51725V2.32422L33.2043 12.0203V12.2133Z" fill="#4074F6"/>
<path d="M16.4089 4.43799L33.2043 14.134V13.8445L16.4089 4.14843V4.43799Z" fill="#4074F6"/>
<path d="M33.2043 16.0548L16.4089 6.35872V5.97265L33.2043 15.6687V16.0548Z" fill="#4074F6"/>
<path d="M16.4089 8.27946L33.2043 17.9755V17.4929L16.4089 7.79687V8.27946Z" fill="#4074F6"/>
<path d="M33.2043 19.8963L16.4089 10.2003V9.62118L33.2043 19.3172V19.8963Z" fill="#4074F6"/>
<path d="M16.4089 12.121L33.2043 21.8171V21.1414L16.4089 11.4454V12.121Z" fill="#4074F6"/>
<path d="M33.2043 23.7378L16.4089 14.0418V13.2696L33.2043 22.9657V23.7378Z" fill="#4074F6"/>
<path d="M16.4089 15.9625L33.2043 25.6585V24.7899L16.4089 15.0938V15.9625Z" fill="#4074F6"/>
<path d="M33.2043 27.5793L16.4089 17.8832V16.9181L33.2043 26.6141V27.5793Z" fill="#4074F6"/>
<path d="M16.4089 19.804L33.2043 29.5V28.4383L16.4089 18.7423V19.804Z" fill="#4074F6"/>
<path d="M50 10.2926L33.2046 0.596517V0.5L50 10.196V10.2926Z" fill="#4074F6"/>
<path d="M50 12.2133L33.2046 2.51725V2.32422L50 12.0203V12.2133Z" fill="#4074F6"/>
<path d="M33.2046 4.43799L50 14.134V13.8445L33.2046 4.14843V4.43799Z" fill="#4074F6"/>
<path d="M50 16.0548L33.2046 6.35872V5.97265L50 15.6687V16.0548Z" fill="#4074F6"/>
<path d="M33.2046 8.27946L50 17.9755V17.4929L33.2046 7.79687V8.27946Z" fill="#4074F6"/>
<path d="M50 19.8963L33.2046 10.2003V9.62118L50 19.3172V19.8963Z" fill="#4074F6"/>
<path d="M33.2046 12.121L50 21.8171V21.1414L33.2046 11.4454V12.121Z" fill="#4074F6"/>
<path d="M50 23.7378L33.2046 14.0418V13.2696L50 22.9657V23.7378Z" fill="#4074F6"/>
<path d="M33.2046 15.9625L50 25.6585V24.7899L33.2046 15.0938V15.9625Z" fill="#4074F6"/>
<path d="M50 27.5793L33.2046 17.8832V16.9181L50 26.6141V27.5793Z" fill="#4074F6"/>
<path d="M33.2046 19.804L50 29.5V28.4383L33.2046 18.7423V19.804Z" fill="#4074F6"/>
<path d="M33.3214 0.596517L16.6028 10.2483V10.1517L33.3214 0.5V0.596517Z" fill="#4074F6"/>
<path d="M33.3214 2.51725L16.6028 12.169V11.976L33.3214 2.32422V2.51725Z" fill="#4074F6"/>
<path d="M16.6028 14.0897L33.3214 4.43799V4.14843L16.6028 13.8002V14.0897Z" fill="#4074F6"/>
<path d="M33.3214 6.35872L16.6028 16.0105V15.6244L33.3214 5.97265V6.35872Z" fill="#4074F6"/>
<path d="M16.6028 17.9312L33.3214 8.27946V7.79687L16.6028 17.4486V17.9312Z" fill="#4074F6"/>
<path d="M33.3214 10.2003L16.6028 19.852V19.2729L33.3214 9.62118V10.2003Z" fill="#4074F6"/>
<path d="M16.6028 21.7728L33.3214 12.121V11.4454L16.6028 21.0971V21.7728Z" fill="#4074F6"/>
<path d="M33.3214 14.0418L16.6028 23.6935V22.9214L33.3214 13.2696V14.0418Z" fill="#4074F6"/>
<path d="M16.6028 25.6142L33.3214 15.9625V15.0938L16.6028 24.7456V25.6142Z" fill="#4074F6"/>
<path d="M33.3214 17.8832L16.6028 27.535V26.5698L33.3214 16.918V17.8832Z" fill="#4074F6"/>
<path d="M16.6028 29.4557L33.3214 19.804V18.7423L16.6028 28.394V29.4557Z" fill="#4074F6"/>
<path d="M16.7186 0.596517L2.12819e-09 10.2483L0 10.1517L16.7186 0.5V0.596517Z" fill="#4074F6"/>
<path d="M16.7186 2.51725L4.44463e-08 12.169L4.01926e-08 11.976L16.7186 2.32422V2.51725Z" fill="#4074F6"/>
<path d="M8.67637e-08 14.0897L16.7186 4.43799V4.14843L8.03841e-08 13.8002L8.67637e-08 14.0897Z" fill="#4074F6"/>
<path d="M16.7186 6.35872L1.29082e-07 16.0105L1.20576e-07 15.6244L16.7186 5.97265V6.35872Z" fill="#4074F6"/>
<path d="M1.714e-07 17.9312L16.7186 8.27946V7.79687L1.60767e-07 17.4486L1.714e-07 17.9312Z" fill="#4074F6"/>
<path d="M16.7186 10.2003L2.1372e-07 19.852L2.00961e-07 19.2729L16.7186 9.62118V10.2003Z" fill="#4074F6"/>
<path d="M2.56039e-07 21.7728L16.7186 12.121V11.4454L2.41154e-07 21.0971L2.56039e-07 21.7728Z" fill="#4074F6"/>
<path d="M16.7186 14.0418L2.98357e-07 23.6935L2.81345e-07 22.9214L16.7186 13.2696V14.0418Z" fill="#4074F6"/>
<path d="M3.40675e-07 25.6142L16.7186 15.9625V15.0938L3.21536e-07 24.7456L3.40675e-07 25.6142Z" fill="#4074F6"/>
<path d="M16.7186 17.8832L3.82993e-07 27.535L3.61728e-07 26.5698L16.7186 16.9181V17.8832Z" fill="#4074F6"/>
<path d="M4.25311e-07 29.4557L16.7186 19.804V18.7423L4.01919e-07 28.394L4.25311e-07 29.4557Z" fill="#4074F6"/>
</svg>
