<svg width="203" height="118" viewBox="0 0 203 118" fill="none" xmlns="http://www.w3.org/2000/svg">
<path d="M134.809 39.8456L66.62 0.392726V0L134.809 39.4529V39.8456Z" fill="#4D4C98"/>
<path d="M134.809 47.661L66.62 8.20813V7.42268L134.809 46.8755V47.661Z" fill="#4D4C98"/>
<path d="M66.62 16.0235L134.809 55.4764V54.2982L66.62 14.8454V16.0235Z" fill="#4D4C98"/>
<path d="M134.809 63.2918L66.62 23.8389V22.268L134.809 61.7209V63.2918Z" fill="#4D4C98"/>
<path d="M66.62 31.6543L134.809 71.1072V69.1436L66.62 29.6907V31.6543Z" fill="#4D4C98"/>
<path d="M134.809 78.923L66.62 39.4701V37.1138L134.809 76.5666V78.923Z" fill="#4D4C98"/>
<path d="M66.62 47.2855L134.809 86.7384V83.9893L66.62 44.5364V47.2855Z" fill="#4D4C98"/>
<path d="M134.809 94.5538L66.62 55.1009V51.9591L134.809 91.412V94.5538Z" fill="#4D4C98"/>
<path d="M66.62 62.9163L134.809 102.369V98.8347L66.62 59.3818V62.9163Z" fill="#4D4C98"/>
<path d="M134.809 110.185L66.62 70.7318V66.8045L134.809 106.257V110.185Z" fill="#4D4C98"/>
<path d="M66.62 78.5471L134.809 118V113.68L66.62 74.2272V78.5471Z" fill="#4D4C98"/>
<path d="M203 39.8456L134.811 0.392726V0L203 39.4529V39.8456Z" fill="#4D4C98"/>
<path d="M203 47.661L134.811 8.20813V7.42268L203 46.8755V47.661Z" fill="#4D4C98"/>
<path d="M134.811 16.0235L203 55.4764V54.2982L134.811 14.8454V16.0235Z" fill="#4D4C98"/>
<path d="M203 63.2918L134.811 23.8389V22.268L203 61.7209V63.2918Z" fill="#4D4C98"/>
<path d="M134.811 31.6543L203 71.1072V69.1436L134.811 29.6907V31.6543Z" fill="#4D4C98"/>
<path d="M203 78.923L134.811 39.4701V37.1138L203 76.5666V78.923Z" fill="#4D4C98"/>
<path d="M134.811 47.2855L203 86.7384V83.9893L134.811 44.5364V47.2855Z" fill="#4D4C98"/>
<path d="M203 94.5538L134.811 55.1009V51.9591L203 91.412V94.5538Z" fill="#4D4C98"/>
<path d="M134.811 62.9163L203 102.369V98.8347L134.811 59.3818V62.9163Z" fill="#4D4C98"/>
<path d="M203 110.185L134.811 70.7318V66.8045L203 106.257V110.185Z" fill="#4D4C98"/>
<path d="M134.811 78.5471L203 118V113.68L134.811 74.2272V78.5471Z" fill="#4D4C98"/>
<path d="M135.285 0.392726L67.4073 39.6653V39.2726L135.285 0V0.392726Z" fill="#4D4C98"/>
<path d="M135.285 8.20813L67.4073 47.4807V46.6953L135.285 7.42268V8.20813Z" fill="#4D4C98"/>
<path d="M67.4073 55.2962L135.285 16.0235V14.8454L67.4073 54.118V55.2962Z" fill="#4D4C98"/>
<path d="M135.285 23.8389L67.4073 63.1116V61.5406L135.285 22.268V23.8389Z" fill="#4D4C98"/>
<path d="M67.4073 70.927L135.285 31.6543V29.6907L67.4073 68.9633V70.927Z" fill="#4D4C98"/>
<path d="M135.285 39.4701L67.4073 78.7427V76.3864L135.285 37.1138V39.4701Z" fill="#4D4C98"/>
<path d="M67.4073 86.5582L135.285 47.2855V44.5364L67.4073 83.8091V86.5582Z" fill="#4D4C98"/>
<path d="M135.285 55.1009L67.4073 94.3736V91.2317L135.285 51.9591V55.1009Z" fill="#4D4C98"/>
<path d="M67.4073 102.189L135.285 62.9163V59.3818L67.4073 98.6544V102.189Z" fill="#4D4C98"/>
<path d="M135.285 70.7318L67.4073 110.004V106.077L135.285 66.8045V70.7318Z" fill="#4D4C98"/>
<path d="M67.4073 117.82L135.285 78.5471V74.2272L67.4073 113.5V117.82Z" fill="#4D4C98"/>
<path d="M67.8777 0.392726L8.64047e-09 39.6653L0 39.2726L67.8777 0V0.392726Z" fill="#4D4C98"/>
<path d="M67.8777 8.20813L1.80452e-07 47.4807L1.63182e-07 46.6953L67.8777 7.42268V8.20813Z" fill="#4D4C98"/>
<path d="M3.52261e-07 55.2962L67.8777 16.0235V14.8454L3.2636e-07 54.118L3.52261e-07 55.2962Z" fill="#4D4C98"/>
<path d="M67.8777 23.8389L5.24072e-07 63.1116L4.89538e-07 61.5406L67.8777 22.268V23.8389Z" fill="#4D4C98"/>
<path d="M6.95884e-07 70.927L67.8777 31.6543V29.6907L6.52716e-07 68.9633L6.95884e-07 70.927Z" fill="#4D4C98"/>
<path d="M67.8777 39.4701L8.67704e-07 78.7427L8.15903e-07 76.3864L67.8777 37.1138V39.4701Z" fill="#4D4C98"/>
<path d="M1.03952e-06 86.5582L67.8777 47.2855V44.5364L9.79084e-07 83.8091L1.03952e-06 86.5582Z" fill="#4D4C98"/>
<path d="M67.8777 55.1009L1.21133e-06 94.3736L1.14226e-06 91.2317L67.8777 51.9591V55.1009Z" fill="#4D4C98"/>
<path d="M1.38314e-06 102.189L67.8777 62.9163V59.3818L1.30544e-06 98.6544L1.38314e-06 102.189Z" fill="#4D4C98"/>
<path d="M67.8777 70.7318L1.55495e-06 110.004L1.46862e-06 106.077L67.8777 66.8045V70.7318Z" fill="#4D4C98"/>
<path d="M1.72676e-06 117.82L67.8777 78.5471V74.2272L1.63179e-06 113.5L1.72676e-06 117.82Z" fill="#4D4C98"/>
</svg>
